<svg viewBox="0 0 347 231" fill="none" xmlns="http://www.w3.org/2000/svg">
<path d="M307.446 129.767L306.847 129.598L305.48 116.86L306.932 117.544C318.242 122.857 328.185 122.519 333.667 116.691C337.775 112.323 338.381 105.896 335.295 100.237C333.321 96.6438 330.841 94.4171 327.755 93.5572C322.787 92.1828 318.073 94.755 317.988 94.8394L313.704 97.2427L316.775 93.4727C316.944 93.2961 320.714 88.6738 326.711 88.1594C330.55 87.8139 334.335 89.1883 338.02 92.3594C344.877 98.1871 346.467 111.463 341.445 120.769C338.274 126.681 330.135 135.418 310.264 130.627C309.346 130.276 308.404 129.989 307.446 129.767ZM326.979 89.9254C325.255 90.1193 323.592 90.6739 322.096 91.5531C324.137 91.1823 326.236 91.2715 328.239 91.8142C331.832 92.8431 334.75 95.4076 336.892 99.3542C340.401 105.689 339.633 113.06 335.003 117.943C329.175 124.085 319.071 124.8 307.592 119.832L308.444 128.14C328.669 133.883 336.807 125.398 339.802 119.832C344.77 110.487 342.374 98.3329 336.807 93.6109C334.962 91.9837 332.761 90.811 330.381 90.1864C329.28 89.8493 328.118 89.7601 326.979 89.9254Z" fill="#2A2C37"/>
<path d="M326.979 89.9254C325.255 90.1194 323.591 90.674 322.096 91.5532C324.137 91.1824 326.236 91.2716 328.238 91.8143C331.832 92.8432 334.749 95.4077 336.892 99.3542C340.401 105.689 339.633 113.06 335.003 117.943C329.175 124.086 319.071 124.8 307.592 119.832L308.444 128.14C328.668 133.883 336.807 125.399 339.802 119.832C344.769 110.488 342.374 98.333 336.807 93.611C334.961 91.9838 332.761 90.811 330.381 90.1865C329.28 89.8494 328.118 89.7602 326.979 89.9254Z" fill="#474A56"/>
<path d="M168.225 59.5117C168.225 59.5117 190.753 55.3962 204.804 55.9951C213.781 56.3699 222.733 57.208 231.623 58.5059C231.623 58.5059 245.076 61.7614 247.218 62.345C249.36 62.9285 266.413 69.8004 267.004 70.1459C267.596 70.4915 282.015 79.5594 282.015 79.5594L296.235 92.6123L307.207 108.637L311.046 116.261L315.154 131.763L316.275 142.735L315.761 153.7L318.241 158.238L335.808 159.527C335.808 159.527 341.375 166.891 342.918 172.289C344.462 177.686 345.659 189.687 345.659 189.687C345.659 189.687 344.631 209.988 340.515 215.9L254.52 212.476L250.535 215.908H142.004L168.225 59.5117Z" fill="#929AAB"/>
<path d="M345.659 189.657C345.659 189.657 344.462 177.663 342.918 172.266C341.375 166.868 335.808 159.497 335.808 159.497L318.241 158.215L315.761 153.669L316.275 142.705L315.154 131.74L311.046 116.23L307.207 108.606L296.22 92.5817L283.167 80.6729C282.798 80.7216 282.426 80.7498 282.054 80.7573C282.054 80.7573 309.127 110.149 295.936 135.933C282.745 161.716 193.21 133.537 192.864 133.023C192.864 133.023 165.622 143.219 153.03 149.984L142.004 215.908H250.535L254.474 212.484L340.469 215.908C344.631 209.958 345.659 189.657 345.659 189.657Z" fill="#222324"/>
<path d="M260.579 170.031C260.579 170.031 247.042 173.463 244.816 177.709C242.589 181.955 243.879 185.073 243.879 185.073C243.879 185.073 241.13 188.075 242.251 190.732C243.372 193.388 242.85 194.072 242.85 194.072C242.85 194.072 240.877 202.379 246.62 207.524C252.363 212.668 253.983 212.491 253.983 212.491C253.983 212.491 258.014 206.495 259.558 202.295C261.101 198.095 262.629 186.278 262.629 186.278L261.861 175.736L260.579 170.031Z" fill="#C2CBDE"/>
<path d="M256.471 181.434C258.498 181.333 260.529 181.362 262.552 181.518L262.383 183.315C262.299 183.315 249.699 182.37 244.815 186.225C244.292 186.62 243.86 187.124 243.55 187.702C243.24 188.279 243.059 188.918 243.019 189.572C242.589 197.366 259.726 200.191 259.911 200.191L259.657 201.996C258.966 201.904 240.462 198.994 240.976 189.488C241.026 188.584 241.275 187.703 241.705 186.906C242.135 186.11 242.736 185.418 243.464 184.881C246.697 182.37 252.186 181.603 256.471 181.434Z" fill="#2A2C37"/>
<path d="M261.438 170.807C261.008 170.891 260.409 170.976 259.641 171.145C255.871 171.913 249.015 173.978 246.105 178.347C244.646 180.489 244.3 183.054 245.076 185.971L243.279 186.486C242.335 183.061 242.765 179.975 244.561 177.402C247.302 173.379 252.7 171.145 256.846 170.031C257.699 169.778 258.559 169.609 259.242 169.433C259.925 169.256 260.616 169.179 261.039 169.095C261.184 169.609 261.284 170.208 261.438 170.807Z" fill="#2A2C37"/>
<path d="M255.012 212.016C254.672 212.549 254.3 213.062 253.899 213.551C253.305 213.351 252.732 213.094 252.187 212.784C251.996 212.678 251.795 212.59 251.588 212.523C247.254 210.244 243.792 206.601 241.737 202.157C241.148 200.815 240.858 199.361 240.887 197.896C240.916 196.431 241.264 194.99 241.906 193.673C241.984 193.429 242.098 193.199 242.244 192.989L243.871 193.757C243.639 194.256 243.439 194.768 243.273 195.293C242.598 197.278 242.661 199.439 243.449 201.381C245.519 205.639 248.958 209.078 253.216 211.148C253.984 211.586 254.498 211.762 255.012 212.016Z" fill="#2A2C37"/>
<path d="M309.657 172.604C309.657 172.604 316.429 156.48 315.316 142.36C314.886 136.793 314.456 131.05 312.913 125.398C307.177 103.639 291.836 85.0421 269.915 72.9643C225.105 48.3942 171.389 59.5122 168.133 61.1399L167.703 60.7944L167.273 59.8577L167.527 59.1667C170.183 57.631 224.852 46.06 270.767 71.2521C293.218 83.5909 308.813 102.61 314.725 124.884C319.27 142.198 317.389 160.012 309.657 172.604Z" fill="#2A2C37"/>
<path d="M319.352 167.805C319.352 167.805 317.986 159.413 315.152 153.501L316.527 152.042C319.529 158.323 320.466 163.613 319.352 167.805Z" fill="#2A2C37"/>
<path d="M341.137 217.16L253.913 213.321L253.998 211.432L339.932 215.202C352.616 180.589 336.86 161.908 335.225 160.196L326.656 159.682C317.442 159.083 317.442 159.083 317.227 158.484L319.032 157.969L318.172 158.231L318.341 157.286C319.108 157.371 335.048 158.315 335.739 158.315C335.993 158.315 336.591 158.315 338.903 161.571C343.448 168.082 352.785 186.586 341.651 216.4L341.137 217.16Z" fill="black"/>
<path d="M255.91 211.163C255.565 211.67 255.219 212.185 254.797 212.699C253.733 214.136 252.587 215.51 251.365 216.815L251.111 217.076H147.748V215.187H250.305C251.291 214.135 252.207 213.019 253.046 211.847C253.469 211.332 253.814 210.818 254.16 210.311C260.41 201.228 261.838 191.377 261.439 183.154C261.439 182.555 261.354 181.864 261.354 181.265C261.055 177.798 260.482 174.36 259.642 170.984C259.473 170.3 259.296 169.786 259.127 169.187C258.613 167.559 258.183 166.361 258.014 165.762C240.193 164.043 229.352 162.077 211.868 157.961L206.217 156.595L259.296 164.043L259.465 164.473C259.465 164.557 260.156 166.1 260.924 168.757C261.093 169.271 261.27 169.87 261.439 170.554C263.665 179.629 265.892 196.337 255.91 211.163Z" fill="black"/>
<path d="M218.6 159.151C216.112 150.413 213.033 147.419 213.033 147.419C213.456 147.503 217.917 149.3 220.658 159.067L218.6 159.151Z" fill="#2A2C37"/>
<path d="M37.481 52.487C38.6788 50.6827 40.0455 47.5116 41.3201 45.8838C32.5823 40.6627 27.4994 34.666 26.4936 27.9784C25.2958 20.6995 29.4573 13.9273 31.945 10.7562C29.9717 10.5873 26.7162 10.0422 23.7985 11.5778C20.2896 13.4666 16.5503 17.7664 15.0915 22.9108C12.9492 30.3663 15.1759 38.8123 20.2281 44.5555C24.7045 49.6922 31.6533 53.1704 37.481 52.487Z" fill="#FADFDE"/>
<path d="M20.5112 197.965C25.0567 202.081 31.9056 206.281 39.6222 209.959C39.7066 209.959 39.7066 209.959 39.7066 209.874L39.7911 209.959C47.3845 213.58 55.3024 216.477 63.4398 218.612C67.6398 219.641 71.7476 220.501 75.602 221.1C92.3097 223.326 123.759 221.1 125.042 221.015C128.812 220.416 132.835 219.641 136.866 218.612C145.003 216.477 152.921 213.58 160.515 209.959L160.599 209.874C160.61 209.874 160.621 209.876 160.632 209.881C160.642 209.885 160.651 209.891 160.659 209.899C160.667 209.907 160.673 209.916 160.677 209.926C160.682 209.936 160.684 209.947 160.684 209.959C168.362 206.281 175.165 202.081 179.787 197.965C191.611 187.431 198.038 174.747 198.468 161.294C199.497 129.169 174.735 117.69 174.735 117.69C178.49 119.294 181.961 121.492 185.016 124.201C184.332 97.7269 172.593 65.5093 157.083 45.8839L151.263 39.4573C140.037 29.0073 123.928 24.0319 112.787 21.7975C112.236 22.8979 111.608 23.9576 110.906 24.9686C110.991 24.7152 111.59 23.3408 112.104 21.6286C112.273 21.1142 112.45 20.4308 112.618 19.8319C113.302 17.0832 113.816 13.7432 112.879 11.386C112.513 10.5028 111.953 9.71316 111.241 9.07529C110.528 8.43742 109.682 7.96761 108.764 7.70045C109.024 8.4193 109.197 9.16689 109.278 9.92709C109.509 11.7776 109.48 13.6511 109.194 15.4938C109.001 16.7399 108.563 17.9353 107.904 19.0104C107.52 19.6344 107.061 20.2093 106.537 20.7226C105.484 21.7998 104.157 22.5696 102.698 22.9493C103.634 22.3006 104.445 21.4892 105.094 20.5537C105.474 20.006 105.818 19.4341 106.123 18.8415C107.152 16.8682 107.835 14.0426 107.32 10.1882C106.468 3.27782 99.9571 1.95718 96.955 1.74219C98.4906 4.73667 102.007 12.0232 99.0972 18.2809C98.7503 19.0053 98.2887 19.6691 97.7305 20.2465C96.8017 21.2228 95.6094 21.9084 94.2984 22.2198C94.8537 21.6896 95.3671 21.1171 95.834 20.5076C86.4129 21.7054 63.7085 25.8823 49.0586 39.4419L42.9698 46.122C27.6135 65.5707 15.9811 97.6962 15.3284 124.17C18.3967 121.494 21.8461 119.289 25.5634 117.629C25.5634 117.629 0.71694 129.146 1.83027 161.241C2.26793 174.747 8.67148 187.431 20.5112 197.965Z" fill="#474A56"/>
<path d="M27.968 27.5551C28.9969 33.6976 33.5347 40.1473 41.9346 45.115C42.7868 44.0861 43.8157 42.205 44.6757 41.2759C45.5356 40.3469 46.3034 39.5637 47.1634 38.7038C43.6468 36.2237 32.168 26.9715 33.0202 12.0605C30.7091 14.7863 26.8547 20.6985 27.968 27.5551Z" fill="#474A56"/>
<path d="M174.136 27.7932C173.015 34.3964 168.047 40.4775 159.31 45.6987C160.6 47.3264 162.051 50.0752 163.248 51.8412C169.076 52.609 175.249 48.9235 179.703 43.7868C182.168 41.0071 183.879 37.642 184.674 34.0127C185.468 30.3834 185.319 26.6111 184.241 23.0558C182.792 17.937 180.307 14.4229 176.785 12.5136C174.217 11.24 171.35 10.688 168.493 10.9166C170.98 14.1338 175.334 20.5297 174.136 27.7932Z" fill="#FADFDE"/>
<path d="M158.457 44.6852C166.849 39.7097 171.302 33.6286 172.331 27.463C173.445 20.6064 169.053 14.0263 166.818 11.2852C167.678 26.1961 156.652 36.2008 153.144 38.5964C153.996 39.4563 154.856 40.3086 155.624 41.1685C156.484 42.2051 157.628 43.664 158.457 44.6852Z" fill="#474A56"/>
<path d="M186.561 125.913C186.561 125.913 181.585 82.2162 166.843 61.3086C166.843 61.3086 189.547 112.376 170.682 110.149C161.775 109.12 130.932 100.122 100.089 100.122C69.2459 100.122 38.1417 109.12 29.1429 110.149C10.293 112.376 32.982 61.3086 32.982 61.3086C18.2476 82.1318 13.5332 125.675 13.5332 125.675L186.561 125.913Z" fill="#222324"/>
<path d="M14.2614 125.913C17.6017 122.588 21.4474 119.813 25.6557 117.69C25.6557 117.69 33.1957 115.033 33.4491 115.033C33.7025 115.033 42.7013 111.962 42.7013 111.962C42.7013 111.962 43.3002 103.823 43.4691 104.077C43.638 104.33 48.4368 100.307 48.4368 100.307L54.0035 99.1934L59.4857 100.568L68.4845 107.424L70.3657 110.25L78.2511 107.847L89.5611 105.966L106.699 105.536C106.699 105.536 115.268 105.797 117.663 106.733C120.059 107.67 130.255 109.904 130.255 109.904L136.252 103.992C136.252 103.992 142.249 100.053 142.94 99.8844C143.631 99.7155 150.48 99.4544 150.48 99.4544C150.48 99.4544 154.319 100.913 154.319 101.251C154.319 101.589 157.229 106.219 157.229 106.219L157.405 112.561L167.61 115.202L174.812 117.775C174.812 117.775 180.294 119.917 186.974 127.111C190.939 131.287 194.182 136.092 196.572 141.331C196.572 141.331 199.228 155.044 199.397 155.559C199.566 156.073 197.769 172.604 197.769 172.604C197.769 172.604 191.089 186.916 190.859 187.431C190.629 187.945 176.985 201.904 176.985 201.904L165.759 208.814L157.359 212.5L139.607 218.98C139.607 218.98 123.238 221.89 122.554 222.236C121.871 222.581 112.189 222.919 112.189 222.919L103.62 223.004H96.9705L83.8562 222.75L66.9642 220.524C66.9642 220.524 46.6632 213.928 46.0566 213.836C45.45 213.744 29.9325 206.043 29.9325 205.697C29.7559 205.444 18.1926 197.044 18.1926 197.044L8.08042 184.966C8.08042 184.966 -2.53079 169.84 0.993488 152.641C4.51776 135.442 14.2614 125.913 14.2614 125.913Z" fill="#929AAB"/>
<path d="M147.402 198.394C119.645 206.617 87.1743 206.449 58.9801 200.882C37.3047 194.455 15.8903 181.686 0.464844 164.211C1.35626 171.608 3.93601 178.701 8.0048 184.942L18.0325 196.851L18.3703 197.196C19.8292 198.225 29.7647 205.504 29.7647 205.765C29.7647 206.026 45.2746 213.727 45.8888 213.904C46.5031 214.081 66.7965 220.584 66.7965 220.584L83.6884 222.811L96.7951 223.072H103.483L112.052 222.987C112.052 222.987 121.734 222.557 122.417 222.296C123.1 222.035 139.463 219.041 139.463 219.041L157.199 212.614L165.599 208.936L174.936 203.109C176.307 202.066 177.622 200.951 178.875 199.769C181.362 197.196 185.47 192.996 188.042 190.255C189.071 189.058 190.1 187.768 191.114 186.416C192.741 183.076 197.625 172.596 197.625 172.596C197.625 172.596 198.055 169.002 198.485 165.056C183.812 182.201 168.993 189.142 147.402 198.394Z" fill="#474A56"/>
<path d="M95.9951 172.78C95.9951 172.78 101.224 182.37 111.843 180.228C122.462 178.086 123.667 165.409 123.667 165.409C123.667 165.409 120.327 174.063 111.674 175.859C103.021 177.656 95.9951 172.78 95.9951 172.78Z" fill="#80899A"/>
<path d="M164.794 22.2422C164.794 22.2422 168.226 25.0677 166.168 31.1565C164.111 37.2453 158.198 44.3476 158.198 44.3476L152.286 38.2665C152.255 38.1744 164.111 29.6977 164.794 22.2422Z" fill="#929AAB"/>
<path d="M35.5001 22.4189C35.5001 22.4189 32.0756 25.2445 34.1257 31.3333C36.1758 37.4221 42.0956 44.5244 42.0956 44.5244L48.0078 38.4433C48.0078 38.3818 36.1834 29.9052 35.5001 22.4189Z" fill="#929AAB"/>
<path d="M72.0088 59.5127C70.2308 59.5152 68.465 59.8056 66.7799 60.3726C64.4257 61.0428 62.2562 62.2431 60.4378 63.8816C59.1555 65.1638 58.5566 66.4538 58.81 67.3982C59.0634 68.3426 60.3457 69.1104 62.15 69.4482C64.5717 69.7568 67.0317 69.5234 69.3521 68.7649C74.7269 67.0526 77.7981 63.7127 77.2299 61.7394C76.8921 60.795 75.6943 60.0271 73.8899 59.7661C73.2768 59.599 72.6442 59.5138 72.0088 59.5127Z" fill="#929AAB"/>
<path d="M126.409 59.6811C124.612 59.9422 123.414 60.71 123.069 61.6544C122.47 63.62 125.557 66.9677 130.954 68.6799C133.273 69.4348 135.73 69.6681 138.149 69.3633C139.945 69.1099 141.143 68.3344 141.489 67.3055C141.834 66.2767 141.235 65.0021 139.861 63.7966C138.02 62.1887 135.858 60.9901 133.519 60.28C131.835 59.7191 130.072 59.4314 128.298 59.4277C127.607 59.5122 127.008 59.5967 126.409 59.6811Z" fill="#929AAB"/>
<path d="M37.5669 53.7686C37.5187 53.8156 37.4888 53.8781 37.4824 53.9451L37.5669 53.7686Z" fill="#8091CE"/>
<path d="M163.164 53.7686L163.249 53.9451C163.249 53.853 163.249 53.853 163.164 53.7686Z" fill="#8091CE"/>
<path d="M156.57 43.5725L145.521 33.207L122.64 22.8414L113.135 20.9603C113.135 20.9603 114.071 17.3592 114.071 17.1212V11.3012L111.561 7.50818L106.762 5.97255L104.535 3.48483L101.579 1.59599L97.0412 0.99707H95.6668L99.099 9.13595L97.4712 18.9025L78.0224 22.7416L55.1415 33.1071L44.0926 43.4727L37.4971 53.6693C39.6393 50.9282 67.3114 24.7149 100.297 24.8839C133.313 24.7149 160.954 50.9282 163.096 53.6693L156.57 43.5725Z" fill="#C2CBDE"/>
<path d="M72.3022 28.7461C77.1164 26.5424 81.6465 26.1201 82.4143 27.794C83.1822 29.4678 79.8959 32.6235 75.0817 34.8271C70.2675 37.0308 65.7297 37.4531 64.9619 35.7716C64.1941 34.0901 67.4803 30.9497 72.3022 28.7461Z" fill="#C2CBDE"/>
<path d="M60.9533 37.0081C61.4677 37.9525 59.8399 39.8336 57.1833 41.3769C54.5266 42.9202 52.0466 43.3502 51.5322 42.4058C51.0177 41.4614 52.6455 39.5803 55.3021 38.037C57.9588 36.4936 60.4389 36.0406 60.9533 37.0081Z" fill="#C2CBDE"/>
<path d="M71.916 112.2C72.346 112.461 97.7914 101.497 128.635 112.2C128.635 112.2 130.355 109.896 130.093 109.896C129.832 109.896 122.469 107.324 121.701 107.416C120.933 107.509 107.819 105.182 106.875 105.182C105.93 105.182 98.9969 104.76 96.7625 104.76C94.5282 104.76 84.0859 106.126 83.8325 106.211C83.5792 106.295 70.4648 110.05 70.4648 110.05L71.916 112.2Z" fill="#C2CBDE"/>
<path d="M75.3513 123.341C77.7469 123.341 77.7469 119.655 75.3513 119.655C72.9557 119.655 72.9481 123.341 75.3513 123.341Z" fill="#2D2D39" fill-opacity="0.6"/>
<path d="M82.114 116.4C84.5173 116.4 84.5173 112.715 82.114 112.715C79.7108 112.715 79.7184 116.4 82.114 116.4Z" fill="#2D2D39" fill-opacity="0.6"/>
<path d="M88.2869 124.2C90.6825 124.2 90.6825 120.515 88.2869 120.515C85.8913 120.515 85.8836 124.2 88.2869 124.2Z" fill="#2D2D39" fill-opacity="0.6"/>
<path d="M102.161 116.484C104.564 116.484 104.564 112.806 102.161 112.806C99.7575 112.806 99.8573 116.484 102.161 116.484Z" fill="#2D2D39" fill-opacity="0.6"/>
<path d="M117.419 120.515C119.814 120.515 119.814 116.829 117.419 116.829C115.023 116.829 115.015 120.515 117.419 120.515Z" fill="#2D2D39" fill-opacity="0.6"/>
<path d="M111.56 125.398C113.956 125.398 113.956 121.713 111.56 121.713C109.165 121.713 109.257 125.398 111.56 125.398Z" fill="#2D2D39" fill-opacity="0.6"/>
<path d="M92.9929 113.659C95.3962 113.659 95.3962 109.974 92.9929 109.974C90.5897 109.974 90.5973 113.659 92.9929 113.659Z" fill="#2D2D39" fill-opacity="0.6"/>
<path d="M111.331 114.088C113.734 114.088 113.734 110.402 111.331 110.402C108.928 110.402 108.935 114.088 111.331 114.088Z" fill="#2D2D39" fill-opacity="0.6"/>
<path d="M122.986 125.229C125.382 125.229 125.382 121.544 122.986 121.544C120.591 121.544 120.583 125.229 122.986 125.229Z" fill="#2D2D39" fill-opacity="0.6"/>
<path d="M98.7518 18.2188C98.4051 18.9452 97.9407 19.6093 97.3775 20.1844C96.863 20.2688 96.6096 20.3533 95.9109 20.4454C85.7988 21.7276 60.3533 26.442 46.0489 42.5508C28.9113 61.823 15.7125 96.9506 15.2902 125.314L13.4014 125.997C13.8313 97.2961 27.2835 60.8786 44.6745 41.3454C60.1 24.0388 87.941 19.501 97.1087 18.4721C97.6459 18.3298 98.1967 18.2449 98.7518 18.2188Z" fill="#2A2C37"/>
<path d="M180.985 199.339C193.155 188.459 199.835 175.345 200.265 161.294C201.378 127.794 174.927 117.69 174.651 117.598C174.651 117.598 199.497 129.115 198.376 161.21C197.954 174.662 191.466 187.315 179.703 197.881C170.681 205.927 153.229 214.419 136.897 218.612C125.946 221.286 114.724 222.697 103.451 222.819C130.693 225.384 164.024 214.504 180.985 199.339Z" fill="#2A2C37"/>
<path d="M19.314 199.339C7.15183 188.459 0.464159 175.345 0.0341818 161.294C-1.07915 127.794 25.3721 117.69 25.6562 117.598C25.6562 117.598 0.809693 129.115 1.92303 161.21C2.353 174.662 8.83338 187.315 20.5963 197.881C29.5951 205.935 47.0706 214.419 63.4404 218.612C74.382 221.284 85.5933 222.695 96.8558 222.819C69.5215 225.384 36.1906 214.504 19.314 199.339Z" fill="#2A2C37"/>
<path d="M42.4557 46.6585L41.7724 46.3207C32.428 40.946 27.1839 34.7497 26.0936 27.8931C24.7192 19.6698 29.9326 12.7287 32.1747 10.1642C32.3913 9.91328 32.6813 9.73681 33.0037 9.65966C33.3261 9.5825 33.6646 9.60857 33.9714 9.73422C34.2706 9.85794 34.523 10.0731 34.6927 10.3489C34.8623 10.6247 34.9403 10.947 34.9158 11.2698C33.3801 28.1618 48.8824 37.6597 49.0513 37.7442L49.9957 38.3431L42.4557 46.6585ZM33.0269 12.0453C30.7235 14.7865 26.7769 20.7831 27.9747 27.5552C29.0036 33.6978 33.718 39.2951 42.1102 44.3474L47.1701 38.7807C43.7303 36.293 32.167 27.0254 33.0193 12.0453H33.0269Z" fill="#2A2C37"/>
<path d="M35.3762 52.8938C29.5484 52.8938 23.5518 50.0682 19.1829 45.1005C16.4966 42.083 14.6355 38.4228 13.7799 34.4745C12.9244 30.5262 13.1034 26.4238 14.2996 22.5651C15.9274 16.9984 18.7529 13.0595 22.6995 10.9173C26.0915 9.0905 30.0573 8.64221 33.7714 9.66579L33.6639 11.5162C33.5794 11.5162 28.4351 9.98059 23.5518 12.5451C20.0403 14.4288 17.5551 17.9403 16.0963 23.0795C15.0145 26.635 14.8644 30.4088 15.6603 34.0389C16.4563 37.6691 18.1716 41.0339 20.6418 43.8106C25.1796 49.0317 31.6906 51.6884 37.6873 50.8361L37.9483 52.6328C37.1076 52.8408 36.2416 52.9288 35.3762 52.8938Z" fill="#2A2C37"/>
<path d="M109.101 15.5624C108.812 17.547 107.879 19.3816 106.445 20.7835C105.391 21.8608 104.064 22.6306 102.606 23.0102C103.546 22.3649 104.361 21.553 105.009 20.6146C105.386 20.0652 105.73 19.4934 106.038 18.9024C107.326 16.2124 107.745 13.188 107.236 10.2491C106.376 3.33878 99.8647 2.02582 96.8702 1.80315C98.4058 4.80531 101.922 12.0842 99.0124 18.3419C98.6656 19.0683 98.2012 19.7324 97.638 20.3075C96.7116 21.2829 95.5219 21.9684 94.2135 22.2808C94.7688 21.7505 95.2822 21.1781 95.7491 20.5686C96.1714 19.8775 96.6014 19.1942 96.9469 18.5953C100.456 10.9171 94.6435 1.54976 94.5437 1.45762L93.6914 0.0908898L95.227 0.00644126C95.3115 0.00644126 104.049 -0.423511 107.65 5.74205C108.05 6.41482 108.364 7.13432 108.587 7.88424C108.85 8.60224 109.023 9.35019 109.101 10.1109C109.401 11.9157 109.401 13.7576 109.101 15.5624Z" fill="#2A2C37"/>
<path d="M113.555 20.1151C113.302 20.714 113.041 21.3129 112.787 21.8273C112.233 22.926 111.605 23.9855 110.906 24.9984C110.991 24.745 111.59 23.3707 112.104 21.6584C112.273 21.144 112.442 20.4606 112.618 19.8617C113.302 17.1206 113.816 13.773 112.872 11.4158C112.507 10.5328 111.949 9.74322 111.238 9.10528C110.527 8.46734 109.681 7.99741 108.764 7.73025C108.334 7.56133 107.904 7.47687 107.39 7.30027V5.37305C110.991 6.22532 113.647 8.16022 114.584 10.7478C115.697 13.7576 114.761 17.2742 113.555 20.1151Z" fill="#2A2C37"/>
<path d="M72.6935 113.659C71.4032 111.758 69.9408 109.979 68.3246 108.346C66.804 106.683 65.1074 105.189 63.2647 103.892C61.4646 102.623 59.5085 101.591 57.4447 100.821C55.4069 100.128 53.2411 99.8949 51.1025 100.138C50.0716 100.185 49.0618 100.445 48.1366 100.903C47.2115 101.36 46.3913 102.004 45.7278 102.794C44.4379 104.33 43.9311 106.564 43.6701 108.707C43.5 110.936 43.5875 113.177 43.9311 115.387C44.2202 117.647 44.677 119.882 45.2978 122.074C43.3363 117.857 42.2896 113.273 42.2266 108.622C42.3187 106.319 42.741 103.739 44.2843 101.712C45.0758 100.731 46.0642 99.9267 47.1857 99.3514C48.3072 98.7761 49.5369 98.4423 50.7954 98.3718C53.1994 98.0916 55.6356 98.3837 57.9054 99.2241C60.1247 100.07 62.1837 101.288 63.9941 102.825C67.6666 105.741 70.6392 109.443 72.6935 113.659Z" fill="#2A2C37"/>
<path d="M66.4255 129.422C69.4951 127.292 68.8131 120.996 64.9023 115.358C60.9914 109.721 55.3327 106.877 52.2631 109.007C49.1935 111.136 49.8754 117.432 53.7863 123.07C57.6971 128.707 63.3559 131.551 66.4255 129.422Z" fill="#222324"/>
<path d="M48.7891 106.549C50.5688 105.868 52.5201 105.777 54.3557 106.288C56.1979 106.748 57.9205 107.596 59.408 108.776C60.1611 109.327 60.8767 109.927 61.5502 110.573C62.2207 111.225 62.8251 111.943 63.3545 112.715C63.8689 113.483 64.4678 114.25 64.8901 115.018C65.3124 115.786 65.7425 116.646 66.088 117.498C65.3969 116.899 64.798 116.216 64.1147 115.617L62.2335 113.728C60.9685 112.497 59.6217 111.353 58.2025 110.304C56.8341 109.237 55.3381 108.344 53.7492 107.647C52.2118 106.877 50.5077 106.5 48.7891 106.549Z" fill="#2A2C37"/>
<path d="M43.3938 113.229L33.0283 115.118L42.9639 111.517L43.3938 113.229Z" fill="#2A2C37"/>
<path d="M111.413 175.007C101.308 177.057 95.9951 172.78 95.9951 172.78C96.164 173.034 100.364 179.199 111.843 176.804C122.984 173.203 123.583 165.755 123.583 165.409C123.667 165.409 121.187 171.751 111.413 175.007Z" fill="#2A2C37"/>
<path d="M64.0397 71.4209C63.2948 71.4101 62.5512 71.3537 61.8131 71.2519C59.2409 70.8219 57.5287 69.6242 57.0143 67.9964C56.4998 66.3686 57.2676 64.3953 59.072 62.6217C61.1181 60.8282 63.5166 59.4823 66.1136 58.6704C68.7105 57.8585 71.4486 57.5986 74.1519 57.9073C76.7164 58.3373 78.4286 59.5351 78.9431 61.1629C79.972 64.5029 75.9486 68.6183 69.7754 70.4995C67.9198 71.0897 65.9867 71.4002 64.0397 71.4209ZM72.0097 59.512C70.2317 59.5146 68.466 59.805 66.7809 60.372C64.4267 61.0421 62.2572 62.2425 60.4387 63.8809C59.1564 65.1632 58.5575 66.4531 58.8109 67.3975C59.0643 68.3419 60.3466 69.1097 62.1509 69.4476C64.5726 69.7561 67.0326 69.5227 69.3531 68.7642C74.7278 67.052 77.799 63.712 77.2308 61.7387C76.893 60.7943 75.6952 60.0265 73.8908 59.7654C73.2777 59.5983 72.6452 59.5131 72.0097 59.512Z" fill="#2A2C37"/>
<path d="M107.821 19.0712C107.432 19.6937 106.97 20.2684 106.447 20.7834C105.996 20.6907 105.539 20.6342 105.08 20.6145C105.457 20.0651 105.801 19.4933 106.109 18.9023C106.685 18.8747 107.262 18.9316 107.821 19.0712Z" fill="#2A2C37"/>
<path d="M186.899 125.913L185.017 125.229C184.587 96.9508 171.304 61.7387 154.259 42.4588C143.033 29.8666 124.959 24.2156 112.797 21.8123C112.561 21.7963 112.329 21.7391 112.113 21.6433C112.282 21.1289 112.451 20.4456 112.628 19.8467C112.963 19.9445 113.308 20.0012 113.657 20.0156C126.08 22.5878 144.323 28.4078 155.718 41.1766C172.986 60.8096 186.469 97.2118 186.899 125.913Z" fill="#2A2C37"/>
<path d="M150.229 38.3518L151.173 37.7529C151.342 37.6685 166.852 28.1552 165.308 11.2786C165.284 10.9558 165.362 10.6335 165.532 10.3577C165.701 10.0819 165.954 9.86673 166.253 9.743C166.56 9.61736 166.898 9.59129 167.22 9.66844C167.543 9.7456 167.833 9.92207 168.05 10.173C170.353 12.7375 175.505 19.6786 174.138 27.9019C173.017 34.7585 167.712 40.9547 158.46 46.3295L157.768 46.6673L150.229 38.3518ZM153.062 38.6897L158.114 44.264C166.506 39.2963 171.305 33.6375 172.249 27.4719C173.363 20.6153 169.424 14.7031 167.197 11.962C168.134 27.0266 156.486 36.2941 153.062 38.6897Z" fill="#2A2C37"/>
<path d="M164.97 52.9169C170.791 52.9169 176.787 50.0913 181.164 45.1159C183.849 42.0992 185.708 38.4399 186.563 34.4929C187.417 30.5458 187.237 26.445 186.039 22.5881C184.412 17.0138 181.578 13.0749 177.639 10.9327C174.208 9.10873 170.214 8.65329 166.46 9.65812L166.675 11.5316C166.76 11.5316 171.896 9.99594 176.779 12.5604C180.296 14.4493 182.781 17.9633 184.235 23.1026C185.318 26.6574 185.469 30.4308 184.675 34.0609C183.88 37.6911 182.166 41.0562 179.697 43.8336C175.152 49.0625 168.641 51.7191 162.644 50.8591L162.391 52.6558C163.232 52.8727 164.102 52.9607 164.97 52.9169Z" fill="#2A2C37"/>
<path d="M127.607 113.659C128.9 111.758 130.365 109.979 131.984 108.346C133.5 106.681 135.194 105.188 137.036 103.893C138.838 102.622 140.797 101.589 142.864 100.821C144.899 100.13 147.062 99.8962 149.198 100.138C150.229 100.185 151.239 100.446 152.164 100.903C153.089 101.36 153.91 102.004 154.573 102.795C155.863 104.33 156.377 106.565 156.631 108.707C156.804 110.936 156.719 113.177 156.377 115.387C156.082 117.646 155.623 119.881 155.003 122.074C156.968 117.859 158.015 113.273 158.074 108.622C157.99 106.319 157.56 103.739 156.017 101.712C155.226 100.73 154.238 99.9256 153.116 99.3502C151.994 98.7749 150.764 98.4416 149.506 98.372C147.101 98.0932 144.666 98.3853 142.396 99.2243C140.178 100.069 138.121 101.286 136.314 102.825C132.637 105.739 129.662 109.441 127.607 113.659Z" fill="#2A2C37"/>
<path d="M146.353 123.068C150.264 117.431 150.946 111.135 147.877 109.005C144.807 106.876 139.148 109.719 135.237 115.357C131.327 120.994 130.645 127.291 133.714 129.42C136.784 131.55 142.443 128.706 146.353 123.068Z" fill="#222324"/>
<path d="M151.434 106.549C149.652 105.869 147.698 105.777 145.86 106.288C144.018 106.749 142.296 107.597 140.808 108.776C140.054 109.326 139.339 109.927 138.665 110.572C138.008 111.227 137.416 111.944 136.899 112.714C136.385 113.482 135.778 114.25 135.364 115.018C134.949 115.786 134.504 116.646 134.158 117.498C134.849 116.899 135.448 116.216 136.131 115.617L138.02 113.728C139.281 112.495 140.625 111.351 142.044 110.303C143.413 109.238 144.909 108.346 146.497 107.647C148.031 106.89 149.724 106.513 151.434 106.549Z" fill="#2A2C37"/>
<path d="M130.526 109.036C130.096 108.86 119.216 104.43 100.197 103.977C81.1781 104.407 70.2521 108.775 69.8682 109.036L70.5515 110.749C70.636 110.664 81.6004 106.295 100.197 105.865C118.786 106.295 129.681 110.626 129.773 110.71L130.526 109.036Z" fill="#2A2C37"/>
<path d="M130.441 70.4774C124.299 68.5962 120.245 64.4807 121.274 61.1407C121.788 59.4285 123.5 58.3151 126.073 57.8852C128.779 57.567 131.522 57.8288 134.119 58.653C136.745 59.3825 139.156 60.7365 141.145 62.5996C143.034 64.3962 143.801 66.2774 143.203 67.9743C142.604 69.6711 140.976 70.7998 138.404 71.2298C137.666 71.3316 136.922 71.388 136.177 71.3987C134.231 71.3713 132.298 71.061 130.441 70.4774ZM126.41 59.6819C124.614 59.9429 123.416 60.7107 123.07 61.6551C122.471 63.6207 125.558 66.9684 130.956 68.6807C133.274 69.4355 135.731 69.6689 138.15 69.364C139.947 69.1106 141.145 68.3351 141.49 67.3063C141.836 66.2774 141.237 65.0028 139.863 63.7974C138.021 62.1895 135.859 60.9908 133.52 60.2807C131.837 59.7199 130.074 59.4322 128.299 59.4285C127.608 59.5129 127.009 59.5974 126.41 59.6819Z" fill="#2A2C37"/>
<path d="M94.5371 137.592C96.0727 137.423 119.729 155.497 110.216 162.162C102.937 167.299 95.827 161.993 95.566 150.852C95.5058 146.415 95.1622 141.986 94.5371 137.592Z" fill="#2A2C37"/>
<path d="M120.16 83.3301C121.778 85.9623 123.976 88.1895 126.587 89.8411C129.214 91.6354 132.215 92.8066 135.363 93.2656C138.569 93.7662 141.852 93.2899 144.784 91.8989C147.786 90.7011 150.013 88.3823 151.81 85.9022C148.984 87.1845 146.496 88.5589 143.84 89.1578C141.244 89.851 138.533 89.9974 135.877 89.5878C133.155 89.1882 130.501 88.413 127.992 87.2843C125.289 86.1578 122.671 84.8363 120.16 83.3301Z" fill="#1D1D1B"/>
<path d="M84.2575 83.2451C82.6054 85.8557 80.3783 88.0539 77.7464 89.6718C75.0995 91.4446 72.0815 92.5872 68.9242 93.0118C65.7055 93.4767 62.4214 92.9574 59.5031 91.5222C56.6919 90.1971 54.3007 88.1221 52.5928 85.5256C55.3339 86.8155 57.8139 88.2666 60.555 88.8655C63.1462 89.5939 65.8616 89.7692 68.525 89.38C71.245 89.0117 73.8995 88.2621 76.4104 87.1533C79.0926 85.9886 81.7119 84.684 84.2575 83.2451Z" fill="#1D1D1B"/>
<path d="M218.285 13.8966L204.91 14.3573L204.503 8.09957C204.971 8.04583 228.244 6.56395 228.766 6.47949L229.111 12.1537L213.187 33.115L231.338 31.495L231.745 37.745C231.284 37.8064 206.154 39.4265 205.693 39.4879L205.286 32.9385L218.285 13.8966Z" fill="#2D2D39"/>
<path d="M267.534 19.5701L253.605 14.4104L255.694 8.50586L278.559 16.9518L276.655 22.3265L255.287 35.057L271.15 40.9077L269.069 46.8122L244.499 37.7213L246.695 31.525L267.534 19.5701Z" fill="#2D2D39"/>
<path d="M310.9 39.8869L298.976 31.0339L302.561 25.9971C302.968 26.2812 321.757 40.2938 322.195 40.5856L318.893 45.1925L294.86 51.335L308.527 61.4702L304.934 66.5071C304.535 66.2153 284.203 51.1047 283.804 50.8206L287.566 45.4919L310.9 39.8869Z" fill="#2D2D39"/>
<path d="M241.773 20.4922L241.136 23.502L233.611 21.8819L234.249 18.8184L241.773 20.4922Z" fill="#2D2D39"/>
<path d="M286.239 35.3191L284.964 38.0986L277.962 34.6818L279.29 31.9023L286.239 35.3191Z" fill="#2D2D39"/>
<path d="M82.2052 222.981C94.468 224.049 106.801 224.028 119.06 222.919L119.567 221.76C119.567 221.76 92.6936 223.549 80.7617 221.76L82.2052 222.981Z" fill="#2D2D39"/>
<path d="M7.13869 136.463C7.13869 136.463 17.8881 117.428 43.2261 113.159L43.3796 111.163C43.3796 111.163 18.3181 114.672 6.24805 134.927L7.13869 136.463Z" fill="#2A2C37"/>
<path d="M193.341 136.463C193.341 136.463 182.591 117.428 157.253 113.159L157.1 111.163C157.1 111.163 182.153 114.672 194.231 134.927L193.341 136.463Z" fill="#2A2C37"/>
</svg>