<svg viewBox="0 0 245 292" fill="none" xmlns="http://www.w3.org/2000/svg">
<path d="M199.869 114.475L200.567 115.07V114.104C199.886 89.8271 189.317 60.1535 174.859 41.9286L169.454 36.0232C159.169 26.4193 144.453 21.8502 133.892 19.7036H133.78C133.899 19.3226 133.991 18.9336 134.056 18.5397C134.582 16.6344 135.306 13.0481 134.306 10.4446C133.745 8.77209 132.383 7.54787 130.245 6.80646L129.461 6.53059L129.685 7.33234C129.886 7.98783 130.027 8.66014 130.107 9.34105C130.333 11.014 130.304 12.7116 130.021 14.3758C129.856 15.466 129.463 16.509 128.866 17.4362C128.555 17.9668 128.175 18.4539 127.736 18.8846C127.411 19.201 127.059 19.4894 126.685 19.7467C126.84 19.557 126.969 19.3846 127.073 19.2294C127.478 18.7368 127.814 18.1916 128.073 17.6087C129.289 15.062 129.696 12.2034 129.237 9.41867C128.374 2.39252 121.478 1.41834 119.348 1.28903L118.607 1.2373L118.943 1.90972C120.064 4.15981 123.495 11.0308 120.917 16.712C120.655 17.373 120.241 17.9635 119.71 18.4362C119.36 18.7883 118.969 19.098 118.546 19.3587L118.624 19.2725L119.322 18.4104L118.236 18.5569C107.632 19.8415 87.9331 23.9537 75.0015 36.0232L69.4668 42.17C54.9835 60.507 44.4658 90.1461 43.8537 114.233V115.19L44.3451 114.776C38.0517 120.975 30.9566 131.717 31.5428 148.398C31.7239 160.856 37.6465 172.624 48.6729 182.426C52.6903 186.029 58.7681 189.866 66.2684 193.521L66.3632 193.573H66.527C73.5011 196.904 80.7791 199.557 88.2607 201.495C92.3298 202.496 96.1144 203.22 99.5111 203.746C105.584 204.434 111.694 204.743 117.805 204.668C130.435 204.668 143.013 203.806 145.065 203.659C148.444 203.151 152.108 202.392 155.97 201.409C163.315 199.497 170.465 196.899 177.325 193.65V193.737L177.945 193.443C185.299 189.943 191.558 185.995 195.55 182.34C206.516 172.589 212.499 160.787 212.843 148.321C213.404 131.475 206.188 120.682 199.869 114.475Z" fill="#474A56"/>
<path d="M201.567 115.87C201.567 115.87 196.998 75.6963 183.463 56.5576C183.463 56.5576 204.326 103.456 186.998 101.387C178.808 100.439 150.444 92.1625 122.081 92.1625C93.7178 92.1625 65.1822 100.439 56.906 101.387C39.5777 103.456 60.4406 56.5576 60.4406 56.5576C46.9056 75.6963 42.3364 115.87 42.3364 115.87H201.567Z" fill="#222324"/>
<path d="M43.1987 115.871C46.2588 112.813 49.7786 110.254 53.6301 108.284C53.6301 108.284 60.6132 105.784 60.7856 105.87C60.958 105.957 69.3204 103.025 69.3204 103.025C69.3204 103.025 69.9239 95.5251 70.0101 95.7837C70.0963 96.0424 74.5793 92.3353 74.5793 92.3353L79.6657 91.3008L84.6659 92.5077L92.9421 98.8011L94.6663 101.387L101.908 99.2322L112.339 97.5079L128.116 97.1631C128.116 97.1631 136.047 97.4217 138.203 98.1976C140.358 98.9735 149.755 101.129 149.755 101.129L155.272 95.6975C155.272 95.6975 160.79 92.0767 161.393 91.9043C161.997 91.7318 168.376 91.5594 168.376 91.5594C168.376 91.5594 171.911 92.8526 171.997 93.1974C172.083 93.5423 174.67 97.7666 174.67 97.7666L174.842 103.543L184.153 105.957L190.791 108.284C190.791 108.284 195.877 110.267 201.998 116.819C205.631 120.673 208.602 125.101 210.792 129.923C210.792 129.923 213.206 142.51 213.464 143.027C213.723 143.544 211.999 158.631 211.999 158.631C211.999 158.631 205.878 171.735 205.619 172.252C205.36 172.77 192.86 185.529 192.86 185.529L182.601 191.908L174.842 195.271L158.548 201.133C158.548 201.133 143.461 203.805 142.858 204.15C142.254 204.495 133.289 204.84 133.289 204.84L125.443 204.926H119.236L107.253 204.667L91.7351 202.685C91.7351 202.685 73.1137 196.65 72.5102 196.564C71.9067 196.477 57.682 189.408 57.682 189.15C57.682 188.891 47.0781 181.132 47.0781 181.132L37.7674 170.011C37.7674 170.011 27.9394 156.217 31.3016 140.355C34.319 124.578 43.1987 115.871 43.1987 115.871Z" fill="#929AAB"/>
<path d="M233.293 233.03L232.517 233.375C225.792 235.962 218.033 244.669 212.344 255.962C208.464 263.635 206.05 271.48 205.619 278.032C205.274 283.032 206.05 286.912 207.861 289.326L208.292 289.843L207.688 289.757C198.808 288.55 176.739 285.101 164.152 279.584L163.548 279.325L164.238 279.153C165.79 278.636 167.255 278.205 168.635 277.774C140.099 283.895 114.495 288.722 77.1656 278.377C78.0277 278.722 78.8897 278.981 79.8381 279.325L80.4415 279.498L79.8381 279.756C67.51 285.36 45.6987 288.636 36.9053 289.757L36.3018 289.843L36.6466 289.326C38.5433 286.912 39.3192 283.032 38.9743 278.032C38.4571 271.48 36.1294 263.635 32.2499 255.962C26.56 244.669 18.8011 236.048 12.0767 233.375L11.3008 233.03L40.0951 227.168L40.1813 227.34C41.4639 229.891 43.3598 232.083 45.6987 233.72C43.7159 231.306 40.2675 226.651 40.1813 222.685C39.8364 215.012 46.3022 207.512 49.061 204.581L49.4058 204.236L49.492 204.667C51.9059 212.081 58.0268 225.099 72.6826 228.289C75.3932 228.946 78.1698 229.293 80.9588 229.323C85.1628 229.463 89.3013 228.255 92.7696 225.875C98.1147 222.082 101.563 215.185 103.632 204.15C103.977 202.339 104.236 200.357 104.58 198.288C105.032 194.714 105.234 191.113 105.184 187.511C116.715 188.575 128.321 188.517 139.841 187.339C139.748 190.999 139.949 194.66 140.444 198.288C140.703 200.443 141.047 202.426 141.392 204.322C143.461 215.185 146.91 222.168 152.255 225.875C155.723 228.255 159.862 229.463 164.066 229.323C166.854 229.288 169.63 228.941 172.342 228.289C186.998 225.099 193.205 212.081 195.532 204.667L195.705 204.236L195.964 204.581C198.722 207.426 205.188 215.012 204.843 222.685C204.671 226.651 201.222 231.306 199.326 233.72C201.665 232.083 203.561 229.891 204.843 227.34L204.929 227.168L233.293 233.03Z" fill="#474A56"/>
<path d="M141.22 198.288C143.03 212.341 146.651 220.875 152.513 225.1C155.788 227.317 159.683 228.434 163.635 228.29C166.332 228.242 169.018 227.925 171.652 227.341C183.29 224.755 189.325 215.875 192.429 208.892C195.898 200.925 197.092 192.151 195.877 183.546V183.288H195.619C194.239 183.46 192.256 183.805 190.963 183.977H190.618L190.705 184.236C191.861 187.436 192.187 190.876 191.653 194.236C191.565 192.501 191.363 190.773 191.049 189.064C190.699 187.289 190.089 185.575 189.239 183.977L189.067 183.719L188.808 183.891C188.205 184.322 187.601 184.753 186.998 185.098C188.808 182.943 193.118 177.512 194.756 174.149C196.195 170.991 197.321 167.699 198.119 164.321L198.205 163.804L197.774 163.977C195.633 164.716 193.398 165.152 191.136 165.27C188.549 165.528 185.532 165.701 182.17 165.701C178.808 165.701 175.532 165.615 171.997 165.356C164.152 164.839 149.927 163.028 145.875 159.925L145.617 159.666L145.53 160.011C145.185 160.873 144.754 162.339 144.237 164.235L143.806 165.959C140.827 176.461 139.948 187.447 141.22 198.288Z" fill="#474A56"/>
<path d="M35.4397 228.117C35.4397 228.117 33.112 239.239 58.113 244.928C58.113 244.928 45.7849 236.825 40.2675 226.824L35.4397 228.117Z" fill="#222324"/>
<path d="M208.55 228.117C208.55 228.117 210.878 239.239 185.877 244.928C185.877 244.928 198.205 236.825 203.722 226.824L208.55 228.117Z" fill="#222324"/>
<path d="M238.801 234.307L238.025 234.048L236.991 233.789H236.818C236.646 233.789 236.474 233.703 236.301 233.703C229.749 233.703 219.921 243.445 213.369 256.463C209.576 263.963 207.162 271.722 206.731 278.102C206.3 284.222 207.679 288.619 210.61 290.085C211.39 290.466 212.243 290.672 213.111 290.688C215.783 290.688 219.059 289.136 222.594 286.119C227.508 281.895 232.335 275.515 236.129 267.929C239.922 260.342 242.336 252.669 242.767 246.29C243.112 240.1 241.741 235.789 238.801 234.307Z" fill="#2A2C37"/>
<path d="M37.5948 278.119C37.1637 271.654 34.7498 263.981 30.9566 256.481C24.4046 243.549 14.4904 233.721 8.02461 233.721C7.84775 233.707 7.67025 233.737 7.50735 233.807L6.38662 234.066H6.3004L5.52451 234.324C2.59336 235.79 1.21399 240.187 1.64504 246.308C2.07609 252.773 4.48998 260.446 8.28324 267.947C12.0765 275.447 16.9043 281.913 21.8183 286.137C25.3529 289.154 28.6289 290.706 31.3014 290.706C32.1738 290.732 33.0371 290.524 33.8015 290.103C36.6465 288.62 38.0258 284.24 37.5948 278.119Z" fill="#2A2C37"/>
<path d="M62.1648 165.7C58.8026 165.7 55.7852 165.528 53.1989 165.269C50.942 165.108 48.713 164.674 46.5607 163.976L46.1296 163.804L46.2159 164.321C47.0001 167.703 48.1267 170.996 49.5781 174.149C51.2161 177.511 55.5266 182.942 57.337 185.098C56.7335 184.753 56.1301 184.322 55.5266 183.891L55.2679 183.718L55.0955 183.977C54.2795 185.589 53.6711 187.298 53.2851 189.063C52.9664 190.772 52.7648 192.5 52.6816 194.236C52.0782 188.719 53.1989 185.184 53.9748 183.46L54.1472 183.115H48.5435V183.287C46.3883 195.874 51.3023 222.599 72.6825 227.255C75.3158 227.843 78.0022 228.16 80.7 228.203C84.6517 228.347 88.5468 227.23 91.8212 225.013C97.7697 220.789 101.391 212.34 103.115 198.202C104.753 185.27 102.684 173.459 100.701 165.787L100.27 164.062C99.7525 162.166 99.2353 160.7 98.9766 159.838L98.8904 159.493L98.6318 159.752C94.5799 162.942 80.3552 164.666 72.51 165.183C68.803 165.528 65.4408 165.7 62.1648 165.7Z" fill="#474A56"/>
<path d="M67.9925 41.7995C60.0094 36.989 55.492 31.5491 54.5782 25.6264C53.423 18.7296 57.5007 12.8328 59.3111 10.6258L59.8198 10.0051L59.018 9.92748C56.4473 9.65089 53.8511 10.1145 51.5349 11.2638C48.1986 13.0656 45.8364 16.4364 44.5088 21.178C43.4992 24.5127 43.3573 28.05 44.0965 31.4549C44.8357 34.8598 46.4316 38.0197 48.7331 40.6356C52.1126 44.6617 57.5007 48.7135 62.9406 48.7135C63.3932 48.7149 63.8453 48.6861 64.2941 48.6274H64.4838L64.5958 48.4722C65.1518 47.6033 65.6612 46.7055 66.1217 45.7824C66.6819 44.6189 67.3455 43.508 68.1046 42.4633L68.4236 42.0754L67.9925 41.7995Z" fill="#FADFDE"/>
<path d="M55.7854 25.4359C56.7337 31.0396 60.8718 36.9881 68.6308 41.5573C69.4067 40.609 70.355 38.8848 71.1309 38.0227C71.8623 37.1763 72.6394 36.3705 73.4586 35.6088C70.2688 33.3673 59.6649 24.8325 60.527 11.125C58.3717 13.7113 54.7509 19.1425 55.7854 25.4359Z" fill="#474A56"/>
<path d="M190.101 25.6772C189.067 31.7981 183.739 37.3156 175.721 42.1434C176.842 43.6952 178.98 46.1091 180.101 47.8333C185.446 48.523 192.308 45.5918 196.36 40.9365C201.015 35.6776 201.869 28.2635 199.886 21.4529C198.507 16.7975 196.058 12.737 192.868 11.0128C190.196 9.54722 186.679 9.59895 184.868 9.77137C187.196 12.5473 191.222 19.0562 190.101 25.6772Z" fill="#FADFDE"/>
<path d="M175.704 41.2994C183.463 36.7303 188.377 31.4025 189.325 25.7815C190.36 19.4882 185.791 12.85 183.722 10.2637C184.584 23.9711 174.066 33.4284 170.876 35.6699C171.652 36.4458 172.428 37.2217 173.204 38.0838C173.98 38.9459 175.006 40.2649 175.704 41.2994Z" fill="#474A56"/>
<path d="M212.516 151.734C212.171 155.355 211.74 158.717 211.74 158.717C211.74 158.717 207.257 168.286 205.792 171.39C204.843 172.597 203.895 173.804 203.033 174.924C200.619 177.511 196.826 181.39 194.584 183.718C193.377 184.752 192.17 185.787 190.963 186.735L182.342 192.08L174.583 195.443L158.29 201.305C158.29 201.305 143.203 203.977 142.599 204.322C142.096 204.469 141.571 204.528 141.047 204.495C138.375 204.753 133.03 204.926 133.03 204.926L125.185 205.012H118.969L106.986 204.753L103.279 204.236L91.4679 202.684C91.4679 202.684 72.8464 196.65 72.2429 196.563C71.6395 196.477 57.4148 189.408 57.4148 189.149C57.4148 188.891 48.2764 182.252 46.9833 181.304C46.8971 181.218 46.7247 181.132 46.6385 180.959L37.5001 170.01C33.7599 164.27 31.3722 157.756 30.5171 150.958C44.6556 167.079 64.3978 178.804 84.3124 184.666C91.0942 186.011 97.9435 186.989 104.83 187.597C116.361 188.661 127.968 188.603 139.487 187.425C148.332 186.537 157.077 184.835 165.609 182.339C185.351 173.959 199.067 167.597 212.516 151.734Z" fill="#3F424D"/>
<path d="M181.566 20.6094C181.566 20.6094 184.67 23.1957 182.859 28.7994C181.049 34.403 175.359 41.2999 175.359 41.2999L170.1 35.2651C170.014 35.2651 180.963 27.4028 181.566 20.6094Z" fill="#929AAB"/>
<path d="M62.6822 20.6094C62.6822 20.6094 59.5787 23.1957 61.3891 28.7994C63.1995 34.403 68.717 40.8688 68.717 40.8688L74.1482 35.2651C74.1482 35.2651 63.2857 27.4028 62.6822 20.6094Z" fill="#929AAB"/>
<path d="M96.218 54.9206C94.5792 54.9388 92.9522 55.2003 91.3903 55.6966C89.2499 56.3128 87.2757 57.403 85.6141 58.8863C84.4072 60.0933 83.8899 61.214 84.1486 62.1623C84.4072 63.1107 85.5279 63.7141 87.1659 63.9727C89.3735 64.28 91.6227 64.0432 93.7179 63.2831C98.7181 61.7313 101.563 58.6277 100.96 56.8173C100.701 55.9552 99.5802 55.2655 97.9422 55.0069C97.3709 54.9306 96.7941 54.9018 96.218 54.9206Z" fill="#929AAB"/>
<path d="M140.444 40.6095C138.806 40.8682 137.685 41.5578 137.427 42.4199C136.823 44.2303 139.754 47.3339 144.668 48.8857C146.782 49.5613 149.012 49.796 151.22 49.5754C152.858 49.3167 153.979 48.6271 154.238 47.765C154.496 46.9029 153.979 45.6959 152.772 44.489C151.111 43.0057 149.136 41.9154 146.996 41.2992C145.434 40.803 143.807 40.5415 142.168 40.5233C141.592 40.4636 141.011 40.4927 140.444 40.6095Z" fill="#929AAB"/>
<path d="M64.6563 49.5752C64.6071 49.6199 64.5764 49.6814 64.5701 49.7476L64.6563 49.5752Z" fill="#8091CE"/>
<path d="M180.014 49.5752L180.101 49.7476C180.178 49.6614 180.101 49.6614 180.014 49.5752Z" fill="#8091CE"/>
<path d="M173.98 40.1781L163.807 30.6949L142.772 21.2118L134.064 19.4876C134.064 19.4876 134.927 16.2115 134.927 15.9529V10.6079L132.685 7.15948L128.288 5.69389L126.219 3.45239L123.461 1.72818L119.322 1.21094H118.029L121.219 8.71126L119.754 17.6771L101.908 21.298L80.8726 30.7811L70.6998 40.2643L64.665 49.575C66.6479 47.0749 92.08 23.0222 122.34 23.1084C152.686 22.936 178.118 46.9887 180.015 49.575L173.98 40.1781Z" fill="#C2CBDE"/>
<path d="M96.6148 26.4881C101.072 24.4449 105.236 24.057 105.986 25.626C106.736 27.195 103.658 30.1003 99.1925 32.1435C94.7268 34.1867 90.5714 34.5746 89.83 33.0056C89.0886 31.4366 92.1577 28.5313 96.6148 26.4881Z" fill="#C2CBDE"/>
<path d="M80.9414 35.1609C83.338 33.7816 85.6571 33.3333 86.114 34.1523C86.5709 34.9713 85.045 36.7385 82.6656 38.1524C80.2862 39.5662 77.9499 39.9801 77.493 39.1525C77.0361 38.3248 78.5534 36.5144 80.9414 35.1609Z" fill="#C2CBDE"/>
<path d="M96.2177 103.267C96.6488 103.526 119.926 93.4392 148.375 103.267C148.895 102.589 149.357 101.868 149.754 101.112C149.496 101.112 142.771 98.7843 141.995 98.7843C141.22 98.7843 129.236 96.7152 128.374 96.7152C127.512 96.7152 121.133 96.2842 119.063 96.2842C116.994 96.2842 107.425 97.4911 107.166 97.6635C106.908 97.8359 94.8384 101.284 94.8384 101.284L96.2177 103.267Z" fill="#C2CBDE"/>
<path d="M99.3215 113.543C101.477 113.543 101.477 110.181 99.3215 110.181C97.1663 110.181 97.1663 113.543 99.3215 113.543Z" fill="#555967"/>
<path d="M105.529 107.078C107.684 107.078 107.684 103.716 105.529 103.716C103.373 103.716 103.373 107.078 105.529 107.078Z" fill="#555967"/>
<path d="M111.21 114.232C113.365 114.232 113.365 110.87 111.21 110.87C109.055 110.87 108.968 114.232 111.21 114.232Z" fill="#555967"/>
<path d="M123.978 107.165C126.133 107.165 126.133 103.803 123.978 103.803C121.822 103.803 121.822 107.165 123.978 107.165Z" fill="#555967"/>
<path d="M138.03 110.957C140.185 110.957 140.185 107.595 138.03 107.595C135.875 107.595 135.875 110.957 138.03 110.957Z" fill="#555967"/>
<path d="M132.685 115.439C134.84 115.439 134.84 112.077 132.685 112.077C130.53 112.077 130.53 115.439 132.685 115.439Z" fill="#555967"/>
<path d="M115.52 104.577C117.676 104.577 117.676 101.215 115.52 101.215C113.365 101.215 113.365 104.577 115.52 104.577Z" fill="#555967"/>
<path d="M132.426 104.992C134.582 104.992 134.582 101.63 132.426 101.63C130.271 101.63 130.271 104.992 132.426 104.992Z" fill="#555967"/>
<path d="M143.108 115.267C145.263 115.267 145.263 111.905 143.108 111.905C140.952 111.905 140.952 115.267 143.108 115.267Z" fill="#555967"/>
<path d="M120.788 16.9014C120.575 17.4703 120.2 17.9647 119.71 18.3238C119.193 18.41 118.805 18.798 118.202 18.8842C108.891 20.0911 85.5279 24.4017 72.3377 39.1436C56.5611 56.903 44.4917 89.1457 44.0606 115.181L42.3364 115.785C42.7675 89.4044 55.0956 55.9547 71.0445 38.0229C85.183 22.1602 110.788 18.0221 119.236 16.9876C120.098 16.9876 120.357 16.9014 120.788 16.9014Z" fill="#2A2C37"/>
<path d="M142.427 203.72C142.526 204.056 142.584 204.404 142.599 204.754C142.082 204.84 141.479 204.84 140.875 204.927C135.658 205.429 130.407 205.458 125.185 205.013C130.374 204.987 135.556 204.642 140.703 203.978L142.427 203.72Z" fill="#2A2C37"/>
<path d="M214.154 148.459C213.723 160.959 207.861 172.77 197.257 182.598L196.481 183.374C196.222 183.547 196.05 183.805 195.791 183.978C194.584 185.012 193.205 186.047 191.826 187.081C191.444 187.397 191.041 187.685 190.619 187.943C190.446 187.34 190.274 186.736 190.101 186.219C190.532 185.874 191.05 185.616 191.481 185.271C192.84 184.322 194.136 183.285 195.36 182.167C206.223 172.512 212.171 160.873 212.516 148.459C213.464 120.01 192.257 109.147 190.705 108.371C192.343 108.975 215.102 118.63 214.154 148.459Z" fill="#2A2C37"/>
<path d="M52.9402 185.27C53.3713 185.615 53.8023 185.874 54.3196 186.218C54.0961 186.777 53.923 187.354 53.8023 187.943C53.3801 187.684 52.9768 187.396 52.5954 187.08C51.2163 186.121 49.8923 185.085 48.6297 183.977C48.3711 183.718 48.1124 183.546 47.8538 183.287C47.6027 183.08 47.3718 182.849 47.1641 182.598C36.474 172.77 30.5255 160.873 30.1807 148.372C29.2324 118.543 51.9919 108.888 53.6299 108.284C52.0781 109.06 30.9566 119.836 31.9049 148.372C32.3359 160.786 38.2845 172.425 49.0608 182.08C50.2646 183.248 51.5621 184.315 52.9402 185.27Z" fill="#2A2C37"/>
<path d="M119.064 204.995C113.87 205.44 108.648 205.411 103.46 204.909C102.856 204.823 102.339 204.823 101.735 204.737C101.835 204.4 101.893 204.053 101.908 203.702C102.511 203.788 103.028 203.875 103.546 203.961C108.692 204.624 113.875 204.97 119.064 204.995Z" fill="#2A2C37"/>
<path d="M69.1479 43.0234L68.5444 42.6785C60.0095 37.7645 55.0955 32.0747 54.061 25.7813C52.8541 18.1948 57.5957 11.9014 59.6647 9.4875C59.8685 9.26755 60.1354 9.11627 60.4288 9.0545C60.7222 8.99274 61.0276 9.02356 61.3027 9.14269C61.5877 9.25804 61.8266 9.4642 61.9825 9.72918C62.1384 9.99416 62.2024 10.3032 62.1648 10.6083C60.6992 26.1262 75.0102 34.8334 75.1826 34.9196L76.0447 35.4369L69.1479 43.0234ZM60.4406 11.2117C58.3715 13.798 54.7507 19.2293 55.7852 25.5227C56.7335 31.1264 61.1303 36.2989 68.803 40.9543L73.4584 35.7817C70.3548 33.5402 59.6647 25.0054 60.4406 11.2117Z" fill="#2A2C37"/>
<path d="M62.5961 48.7998C57.2511 48.7998 51.7336 46.1273 47.7679 41.6443C45.3189 38.8637 43.6215 35.5031 42.8368 31.8818C42.0522 28.2605 42.2065 24.4987 43.285 20.9538C44.7505 15.7812 47.3369 12.2466 50.9577 10.2637C54.1508 8.63023 57.8341 8.23122 61.3029 9.14299L60.9581 10.781C60.8719 10.781 56.1303 9.31541 51.7336 11.7293C48.5438 13.4535 46.2161 16.7295 44.923 21.3849C43.9383 24.6507 43.8015 28.1135 44.5255 31.4468C45.2495 34.7802 46.8104 37.8742 49.0611 40.4374C53.2854 45.2652 59.2339 47.679 64.7514 46.9032L65.01 48.5412C64.2233 48.7503 63.4092 48.8376 62.5961 48.7998Z" fill="#2A2C37"/>
<path d="M130.357 14.4013C130.182 15.5373 129.771 16.624 129.15 17.5911C128.818 18.1595 128.413 18.6813 127.943 19.1429C126.977 20.1256 125.751 20.8133 124.409 21.1257C125.293 20.5291 126.054 19.7682 126.65 18.8842C127.035 18.4121 127.354 17.8901 127.599 17.3325C128.767 14.8634 129.158 12.0974 128.719 9.4011C127.943 3.02153 121.995 1.81458 119.236 1.64216C120.615 4.40089 123.805 11.1253 121.219 16.8152C120.933 17.51 120.49 18.1296 119.926 18.6256C119.069 19.4927 117.999 20.1174 116.822 20.436C117.339 19.9188 117.771 19.4015 118.202 18.8842C118.61 18.3197 118.957 17.7127 119.236 17.0738C122.512 10.0046 117.081 1.38351 116.995 1.2973L116.219 0.0903824L117.684 0.00414041C117.771 0.00414041 125.788 -0.34067 129.064 5.26301C129.438 5.88262 129.728 6.54945 129.926 7.24584C130.128 7.92204 130.273 8.61425 130.357 9.31491C130.66 10.9968 130.66 12.7194 130.357 14.4013Z" fill="#2A2C37"/>
<path d="M134.487 18.6254C134.228 19.1426 133.97 19.7461 133.711 20.1771C133.202 21.1912 132.626 22.1704 131.987 23.1083C132.073 22.8497 132.59 21.6427 133.108 20.091C133.302 19.5596 133.446 19.0112 133.539 18.4529C134.228 15.9528 134.659 12.8493 133.797 10.6078C133.28 9.05602 131.987 7.93527 130.004 7.24558C129.573 7.07316 129.228 6.98695 128.711 6.81453L128.392 5.27138L128.883 5.11621C132.159 5.8921 134.487 7.59044 135.435 10.0043C136.392 12.7458 135.616 16.0391 134.487 18.6254Z" fill="#2A2C37"/>
<path d="M96.9078 104.578C95.729 102.856 94.4021 101.241 92.9421 99.7503C91.5573 98.1937 89.9949 96.8049 88.2867 95.6122C86.6567 94.4245 84.854 93.4941 82.9416 92.8535C81.065 92.1817 79.0535 91.9746 77.0794 92.25C76.1337 92.2689 75.2036 92.4949 74.3546 92.912C73.5057 93.329 72.7584 93.927 72.1654 94.6639C71.0419 96.2635 70.3852 98.1439 70.2687 100.095C70.1395 102.139 70.2262 104.191 70.5274 106.216C70.7966 108.28 71.1998 110.325 71.7343 112.337C69.9087 108.454 68.9665 104.214 68.9756 99.9227C68.9229 97.6499 69.5865 95.4181 70.8722 93.5431C71.6103 92.6383 72.5273 91.8957 73.5657 91.3617C74.6041 90.8276 75.7416 90.5137 76.9069 90.4396C79.1214 90.2173 81.3576 90.4821 83.4589 91.2155C85.4996 91.9808 87.3947 93.0887 89.0626 94.4915C92.3368 97.2848 95.0064 100.717 96.9078 104.578Z" fill="#2A2C37"/>
<path d="M78.131 100.397C80.9415 98.4402 86.1313 101.044 89.7091 106.208C93.2868 111.372 93.9162 117.139 91.0971 119.139C88.278 121.139 83.0968 118.493 79.5104 113.329C75.924 108.165 75.3119 102.354 78.131 100.397Z" fill="#222324"/>
<path d="M74.9241 98.0252C76.5446 97.3802 78.3329 97.2893 80.0105 97.7666C81.702 98.2242 83.2848 99.0157 84.6658 100.094C85.3555 100.612 85.959 101.215 86.6487 101.818C87.3384 102.422 87.7694 103.112 88.3729 103.715C88.9764 104.319 89.3212 105.094 89.8385 105.87C90.3557 106.646 90.6144 107.336 90.9592 108.112L89.1488 106.301C88.5453 105.698 87.9418 105.181 87.4246 104.577C86.2722 103.447 85.0327 102.409 83.7175 101.474C82.4703 100.507 81.1096 99.6961 79.6656 99.0597C78.1696 98.4032 76.5576 98.0515 74.9241 98.0252Z" fill="#2A2C37"/>
<path d="M88.9763 65.7824C88.3121 65.7716 87.6495 65.7139 86.9934 65.61C84.6658 65.2651 83.114 64.1444 82.5967 62.5926C82.0794 61.0408 82.7691 59.2304 84.4933 57.5924C86.3718 55.9468 88.5745 54.7133 90.9591 53.9716C93.3217 53.2074 95.8234 52.972 98.287 53.2819C100.615 53.6267 102.166 54.7475 102.684 56.2993C103.632 59.3166 99.925 63.1099 94.3213 64.8341C92.6089 65.4606 90.7997 65.7816 88.9763 65.7824ZM96.2179 54.9199C94.5791 54.9381 92.9522 55.1996 91.3902 55.6958C89.2498 56.312 87.2756 57.4022 85.6141 58.8856C84.4071 60.0925 83.8899 61.2132 84.1485 62.1616C84.4071 63.1099 85.5279 63.7133 87.1659 63.972C89.3734 64.2792 91.6226 64.0424 93.7178 63.2823C98.7181 61.7305 101.563 58.6269 100.96 56.8165C100.701 55.9544 99.5802 55.2647 97.9422 55.0061C97.3708 54.9299 96.7941 54.901 96.2179 54.9199Z" fill="#2A2C37"/>
<path d="M100.27 91.2236C104.174 91.2236 107.339 86.9393 107.339 81.6543C107.339 76.3693 104.174 72.085 100.27 72.085C96.3657 72.085 93.2007 76.3693 93.2007 81.6543C93.2007 86.9393 96.3657 91.2236 100.27 91.2236Z" fill="#2A2C37"/>
<path d="M88.2864 75.6113C88.4789 76.3263 88.8609 76.9761 89.3919 77.492C89.923 78.0079 90.5835 78.3708 91.3038 78.5425C91.9127 78.6144 92.5299 78.5556 93.1142 78.3701C93.3728 78.2839 93.7177 78.1114 93.9763 78.0252L94.8384 77.5942L95.8729 82.9392L94.3212 82.853C93.7956 82.7793 93.2767 82.664 92.7693 82.5082C91.6996 82.2539 90.7174 81.7181 89.9244 80.9564C89.2052 80.2328 88.6726 79.3452 88.3726 78.3701C88.1312 77.4695 88.1017 76.5252 88.2864 75.6113Z" fill="#2A2C37"/>
<path d="M201.826 115.871L200.101 115.267C199.67 89.2316 187.515 56.9027 171.824 39.2296C161.565 27.6774 144.841 22.5047 133.719 20.2633C133.547 20.2633 133.288 20.1771 133.116 20.1771C133.31 19.6457 133.455 19.0973 133.547 18.5391C133.806 18.6253 134.15 18.6253 134.495 18.7115C145.875 21.0392 162.686 26.3843 173.118 38.1951C189.067 56.0406 201.395 89.473 201.826 115.871Z" fill="#2A2C37"/>
<path d="M168.204 35.3499L169.066 34.8327C169.238 34.7465 183.463 26.0392 182.083 10.5213C182.046 10.2162 182.11 9.90721 182.266 9.64223C182.422 9.37724 182.661 9.17108 182.946 9.05574C183.221 8.9366 183.526 8.90583 183.819 8.9676C184.113 9.02937 184.38 9.18065 184.584 9.4006C186.653 11.8145 191.394 18.1079 190.187 25.6944C189.153 31.9878 184.325 37.6776 175.704 42.5916L175.1 42.9365L168.204 35.3499ZM170.79 35.781L175.445 40.9536C183.204 36.3844 187.515 31.2118 188.463 25.522C189.498 19.2286 185.877 13.7973 183.808 11.211C184.584 25.0047 173.894 33.5395 170.79 35.781Z" fill="#2A2C37"/>
<path d="M181.653 48.7999C186.998 48.7999 192.515 46.1274 196.481 41.6445C198.93 38.8639 200.627 35.5033 201.412 31.882C202.197 28.2607 202.042 24.4989 200.964 20.954C199.498 15.7814 196.912 12.2467 193.291 10.2639C190.036 8.63102 186.299 8.23288 182.773 9.14315L183.291 10.7811C183.377 10.7811 188.118 9.31557 192.515 11.7295C195.705 13.4537 198.033 16.7297 199.326 21.385C200.31 24.6509 200.447 28.1137 199.723 31.447C198.999 34.7803 197.438 37.8744 195.188 40.4375C190.963 45.2653 185.015 47.6792 179.497 46.9033L179.239 48.5413C180.025 48.7505 180.84 48.8377 181.653 48.7999Z" fill="#2A2C37"/>
<path d="M147.341 104.578C148.52 102.856 149.846 101.241 151.307 99.7503C152.691 98.1937 154.254 96.8049 155.962 95.6122C157.592 94.4245 159.395 93.4941 161.307 92.8535C163.184 92.1817 165.195 91.9746 167.169 92.25C168.115 92.2689 169.045 92.4949 169.894 92.912C170.743 93.329 171.49 93.927 172.083 94.6639C173.207 96.2635 173.863 98.1439 173.98 100.095C174.109 102.139 174.022 104.191 173.721 106.216C173.452 108.28 173.049 110.325 172.514 112.337C174.34 108.454 175.282 104.214 175.273 99.9227C175.326 97.6499 174.662 95.4181 173.376 93.5431C172.638 92.6383 171.721 91.8957 170.683 91.3617C169.644 90.8276 168.507 90.5137 167.342 90.4396C165.127 90.2173 162.891 90.4821 160.79 91.2155C158.749 91.9808 156.854 93.0887 155.186 94.4915C151.912 97.2848 149.242 100.717 147.341 104.578Z" fill="#2A2C37"/>
<path d="M154.41 106.225C157.988 101.052 163.178 98.466 165.997 100.406C168.816 102.345 168.186 108.165 164.609 113.337C161.031 118.51 155.832 121.096 153.022 119.157C150.211 117.217 150.867 111.389 154.41 106.225Z" fill="#222324"/>
<path d="M169.324 98.0252C167.704 97.3802 165.916 97.2893 164.238 97.7666C162.547 98.2242 160.964 99.0157 159.583 100.094C158.893 100.612 158.29 101.215 157.6 101.818C156.91 102.422 156.479 103.112 155.876 103.715C155.272 104.319 154.927 105.094 154.41 105.87C153.893 106.646 153.634 107.336 153.289 108.112L155.1 106.301C155.703 105.698 156.307 105.181 156.824 104.577C157.976 103.447 159.216 102.409 160.531 101.474C161.778 100.507 163.139 99.6961 164.583 99.0597C166.079 98.4032 167.691 98.0515 169.324 98.0252Z" fill="#2A2C37"/>
<path d="M150.005 100.352C149.574 100.18 139.573 96.128 122.159 95.7832C104.658 96.128 94.6578 100.18 94.313 100.352L95.0027 101.904C95.0889 101.904 105.175 97.766 122.245 97.4212C139.401 97.766 149.401 101.818 149.488 101.904L150.005 100.352Z" fill="#2A2C37"/>
<path d="M144.151 50.5245C138.461 48.8003 134.84 45.0071 135.788 41.9897C136.306 40.4379 137.858 39.3172 140.185 38.9723C142.649 38.6624 145.151 38.8978 147.513 39.662C149.927 40.3344 152.144 41.5761 153.979 43.2829C155.703 44.9208 156.393 46.7313 155.875 48.283C155.358 49.8348 153.806 50.9556 151.479 51.3004C150.823 51.4044 150.16 51.462 149.496 51.4728C147.684 51.3594 145.891 51.0413 144.151 50.5245ZM140.444 40.6103C138.806 40.869 137.685 41.5586 137.426 42.4207C136.823 44.2312 139.754 47.3347 144.668 48.8865C146.782 49.5621 149.012 49.7968 151.22 49.5762C152.858 49.3176 153.979 48.6279 154.238 47.7658C154.496 46.9037 153.979 45.6968 152.772 44.4898C151.11 43.0065 149.136 41.9162 146.996 41.3C145.434 40.8038 143.807 40.5423 142.168 40.5241C141.592 40.4644 141.011 40.4935 140.444 40.6103Z" fill="#2A2C37"/>
<path d="M143.978 91.2236C147.883 91.2236 151.048 86.9393 151.048 81.6543C151.048 76.3693 147.883 72.085 143.978 72.085C140.074 72.085 136.909 76.3693 136.909 81.6543C136.909 86.9393 140.074 91.2236 143.978 91.2236Z" fill="#2A2C37"/>
<path d="M155.962 75.6113C155.769 76.3263 155.387 76.9761 154.856 77.492C154.325 78.0079 153.665 78.3708 152.944 78.5425C152.336 78.6144 151.718 78.5556 151.134 78.3701C150.875 78.2839 150.531 78.1114 150.272 78.0252L149.41 77.5942L148.375 82.9392L149.927 82.853C150.453 82.7793 150.972 82.664 151.479 82.5082C152.549 82.2539 153.531 81.7181 154.324 80.9564C155.043 80.2328 155.576 79.3452 155.876 78.3701C156.117 77.4695 156.147 76.5252 155.962 75.6113Z" fill="#2A2C37"/>
<path d="M101.434 75.1366C103.21 74.7831 105.046 76.516 105.529 78.9902C106.011 81.4645 104.968 83.7577 103.192 84.1025C101.416 84.4473 99.5802 82.7231 99.0974 80.2489C98.6146 77.7746 99.6578 75.4814 101.434 75.1366Z" fill="white"/>
<path d="M138.798 78.8614C139.28 76.3872 141.108 74.6629 142.884 75.0078C144.66 75.3526 145.712 77.6458 145.22 80.1287C144.729 82.6115 142.91 84.3271 141.134 83.9823C139.358 83.6375 138.272 81.3443 138.798 78.8614Z" fill="white"/>
<path d="M108.624 149.821C108.624 149.821 109.055 159.822 118.71 162.322C128.366 164.822 134.487 154.821 134.487 154.821C134.487 154.821 128.28 160.598 120.348 158.701C112.417 156.804 108.624 149.821 108.624 149.821Z" fill="#80899A"/>
<path d="M120.529 157.855C111.305 155.528 108.719 149.838 108.719 149.838C108.719 150.097 109.753 156.907 120.271 159.493C130.961 160.959 134.409 155.097 134.582 154.838C134.487 154.924 129.926 159.149 120.529 157.855Z" fill="#2A2C37"/>
<path d="M121.555 120.182C122.935 120.699 135.176 145.096 124.659 146.821C116.641 148.114 112.848 140.872 117.072 131.648C118.831 127.934 120.329 124.103 121.555 120.182Z" fill="#222324"/>
<path d="M71.9929 276.395C113.115 288.895 139.409 283.55 172.342 276.395C140.522 288.205 103.451 290.016 71.9929 276.395Z" fill="#2A2C37"/>
<path d="M46.0437 163.805C46.0437 163.805 47.2506 174.15 49.837 176.564C51.7792 178.587 53.4591 180.846 54.8372 183.288L52.9405 187.685C52.9405 187.685 89.6662 205.531 91.4766 205.789C93.287 206.048 102.684 205.1 102.684 205.1L103.632 195.789L104.063 184.84L46.0437 163.805Z" fill="#3F424D"/>
<path d="M172.083 164.148C175.704 164.406 179.066 164.493 182.084 164.493C192.084 164.493 198.291 163.286 198.636 161.993V161.82C198.377 160.182 188.98 157.165 172.6 156.044C169.066 155.785 165.704 155.699 162.514 155.699C153.548 155.699 146.479 156.734 146.048 158.199V158.372C146.306 160.01 155.703 162.941 172.083 164.148Z" fill="#2A2C37"/>
<path d="M62.3373 164.477C65.3547 164.477 68.7169 164.391 72.3377 164.132C88.7177 163.011 98.1146 159.994 98.3733 158.356V158.184C97.9422 156.718 90.873 155.684 81.9071 155.684C78.7173 155.684 75.3551 155.77 71.8205 156.028C55.4405 157.149 46.0435 160.167 45.7849 161.891V161.977C46.1298 163.287 52.3369 164.477 62.3373 164.477Z" fill="#2A2C37"/>
<path d="M140.703 186.736C141.91 185.874 180.446 172.77 180.446 172.77L198.291 163.718C198.291 163.718 197.257 168.373 196.567 170.873C195.582 173.446 194.43 175.951 193.119 178.374L190.101 183.029L191.05 186.564C191.05 186.564 185.532 203.461 182.687 203.633C179.842 203.806 141.91 206.564 141.91 206.564L140.703 186.736Z" fill="#3F424D"/>
<path d="M52.6816 165.184C52.8541 167.167 53.4575 170.529 55.7852 173.029C57.5956 175.012 60.2682 176.132 63.5442 176.391C61.0441 172.856 59.8371 167.167 59.5785 165.184C57.0784 165.098 54.8369 165.615 52.6816 165.184Z" fill="#929AAB"/>
<path d="M69.579 164.477C66.7435 164.762 63.8935 164.877 61.0442 164.822C61.6477 168.012 64.1478 177.926 69.7514 178.788C74.8379 179.564 78.7173 169.132 79.8381 164.046C76.7259 164.667 72.855 164.322 69.579 164.477Z" fill="#929AAB"/>
<path d="M81.476 175.269C85.6141 172.51 87.3383 165.613 87.8556 162.769C85.6083 163.575 83.3026 164.209 80.9587 164.665C80.5277 166.648 79.2345 172.338 76.562 176.304C78.2715 176.574 80.0208 176.206 81.476 175.269Z" fill="#929AAB"/>
<path d="M81.0362 163.976C80.8638 164.666 77.7602 181.736 69.484 180.443C61.3802 179.236 59.5698 165.787 59.5698 165.27L61.1216 164.494C61.1216 164.58 62.932 177.77 69.8289 178.805C75.3463 179.667 78.7085 168.201 79.4844 163.718L81.0362 163.976Z" fill="#2A2C37"/>
<path d="M65.4408 178.201C60.6992 178.287 57.0784 176.908 54.4921 174.235C50.4402 169.925 50.8712 163.718 50.9574 163.459L52.6816 163.631C52.6816 163.718 52.2506 169.321 55.7852 173.115C57.9405 175.442 61.2165 176.563 65.4408 176.563V178.201Z" fill="#2A2C37"/>
<path d="M89.6576 161.734C89.5714 162.165 88.2782 172.769 82.3297 176.735C81.2202 177.457 79.9643 177.925 78.6525 178.104C77.3407 178.283 76.0056 178.168 74.7432 177.769L75.1742 176.132C76.2051 176.477 77.3021 176.579 78.3791 176.43C79.4561 176.28 80.4837 175.883 81.3814 175.269C86.6402 171.735 87.8471 162.252 87.8471 162.165L89.6576 161.734Z" fill="#2A2C37"/>
<path d="M159.583 252.256C159.583 259.152 155.876 265.36 149.755 270.015C128.719 273.291 111.219 273.205 97.5974 271.739C90.0109 266.998 85.1831 260.015 85.1831 252.256C85.1831 237.772 101.822 215.616 122.34 215.616C142.858 215.616 159.583 237.755 159.583 252.256Z" fill="#929AAB"/>
<path d="M89.4072 163.028C89.4072 163.028 97.6835 197.685 91.8212 209.409C85.3554 222.427 74.0618 229.41 65.1821 223.979C65.1821 223.979 74.5791 231.307 86.3037 227.686C98.0283 224.065 99.5801 215.099 99.5801 215.099L103.632 200.53L104.063 186.132L102.77 171.563L98.8904 158.804L89.4072 163.028Z" fill="#222324"/>
<path d="M155.358 163.027C155.358 163.027 147.082 197.684 152.945 209.409C159.41 222.426 170.704 229.409 179.584 223.978C179.584 223.978 170.187 231.306 158.462 227.685C146.737 224.064 145.186 215.012 145.186 215.012L141.134 200.443L140.703 186.046L141.996 171.476L145.875 158.717L155.358 163.027Z" fill="#222324"/>
<path d="M191.825 165.184C191.653 167.167 191.05 170.529 188.722 173.029C186.911 175.012 184.239 176.132 180.963 176.391C183.463 172.856 184.67 167.167 184.929 165.184C187.429 165.098 189.662 165.615 191.825 165.184Z" fill="#929AAB"/>
<path d="M174.842 164.477C177.678 164.762 180.528 164.877 183.377 164.822C182.773 168.012 180.273 177.926 174.67 178.788C169.583 179.564 165.704 169.132 164.583 164.046C167.687 164.667 171.652 164.322 174.842 164.477Z" fill="#929AAB"/>
<path d="M163.031 175.269C158.893 172.51 157.169 165.613 156.651 162.769C158.899 163.575 161.204 164.209 163.548 164.665C163.979 166.648 165.272 172.338 167.945 176.304C166.235 176.583 164.483 176.214 163.031 175.269Z" fill="#929AAB"/>
<path d="M163.462 163.976C163.635 164.666 166.738 181.736 175.014 180.443C183.118 179.236 184.929 165.787 184.929 165.27L183.377 164.494C183.377 164.58 181.566 177.77 174.67 178.805C169.152 179.667 165.79 168.201 165.014 163.718L163.462 163.976Z" fill="#2A2C37"/>
<path d="M179.066 178.201C183.808 178.287 187.429 176.908 190.015 174.235C194.067 169.925 193.636 163.718 193.55 163.459L191.826 163.631C191.826 163.718 192.257 169.321 188.722 173.115C186.567 175.442 183.291 176.563 179.066 176.563V178.201Z" fill="#2A2C37"/>
<path d="M154.755 161.734C154.841 162.165 156.134 172.769 162.083 176.735C163.192 177.457 164.448 177.925 165.76 178.104C167.072 178.283 168.407 178.168 169.669 177.769L169.238 176.132C168.207 176.477 167.11 176.579 166.033 176.43C164.956 176.28 163.929 175.883 163.031 175.269C157.772 171.735 156.565 162.252 156.565 162.165L154.755 161.734Z" fill="#2A2C37"/>
<path d="M149.669 270.102C142.858 275.274 133.116 278.55 122.34 278.55C112.77 278.55 104.149 276.05 97.5112 271.826C114.899 273.483 132.428 272.903 149.669 270.102Z" fill="#8991A1"/>
<path d="M208.205 289.758L207.602 289.672C198.722 288.465 176.652 285.017 164.066 279.499L163.462 279.241L164.152 279.068C165.704 278.551 167.169 278.12 168.549 277.689C140.013 283.81 114.408 288.638 77.0793 278.292C77.9414 278.637 78.8035 278.896 79.7519 279.241L80.3553 279.413L79.7519 279.672C67.4238 285.275 45.6125 288.551 36.8191 289.672L36.2156 289.758L36.5604 289.241C38.4571 286.827 39.2329 282.948 38.8881 277.948C38.7009 275.264 38.2387 272.606 37.5087 270.016C47.1937 271.426 57.0704 269.511 65.5271 264.585C65.5271 264.585 76.9069 269.671 97.6836 271.827C104.236 275.965 112.943 278.551 122.512 278.551C133.289 278.551 143.03 275.275 149.841 270.102C158.49 268.725 167.065 266.913 175.532 264.671C175.532 264.671 190.791 274.413 206.826 271.137C206.263 273.401 205.889 275.708 205.705 278.034C205.36 283.034 206.136 286.913 207.947 289.327L208.205 289.758Z" fill="#222324"/>
<path d="M171.911 165.339C162.342 164.649 144.237 162.235 144.582 157.925C144.668 156.804 145.703 155.252 153.462 154.476C159.86 153.956 166.289 153.956 172.687 154.476C179.097 154.877 185.467 155.77 191.739 157.149C199.326 158.959 200.102 160.684 200.016 161.804C199.929 162.925 198.895 164.477 191.136 165.253C188.463 165.511 185.446 165.684 182.084 165.684C178.98 165.787 175.532 165.615 171.911 165.339ZM146.306 158.097C146.479 159.39 155.531 162.494 172.083 163.701C188.636 164.908 198.033 163.011 198.378 161.804C198.205 160.511 189.239 157.408 172.601 156.201C168.894 155.942 165.531 155.856 162.514 155.856C152.255 155.787 146.556 157.08 146.306 158.114V158.097Z" fill="black"/>
<path d="M186.136 185.615C197.084 180.701 199.929 162.683 200.102 161.907L198.464 161.648C197.751 165.825 196.475 169.885 194.671 173.718C192.602 178.028 186.136 185.615 186.136 185.615Z" fill="#2A2C37"/>
<path d="M171.997 228.548C169.285 229.201 166.509 229.548 163.721 229.583C158.979 229.583 155.013 228.462 151.824 226.134C146.565 222.427 143.03 215.617 140.961 205.013C140.862 204.676 140.804 204.329 140.789 203.978C140.444 202.168 140.185 200.357 139.927 198.288C137.168 176.563 144.668 157.942 144.754 157.77L146.306 158.373C146.22 158.545 138.892 176.822 141.565 198.03C141.823 200.013 142.082 201.909 142.427 203.72C142.526 204.056 142.584 204.404 142.599 204.754C144.582 214.841 147.858 221.22 152.772 224.669C157.427 227.945 163.548 228.635 171.652 226.824C191.825 222.341 197.774 197.771 195.705 183.891L195.446 182.34L197.084 181.995C197.084 182.167 197.17 182.34 197.17 182.512C199.843 196.823 193.808 223.721 171.997 228.548Z" fill="#2A2C37"/>
<path d="M191.481 196.822C191.513 194.191 191.282 191.562 190.791 188.977L190.532 187.942C190.36 187.339 190.188 186.735 190.015 186.218C189.614 185.158 189.154 184.122 188.636 183.115L189.325 182.597L190.015 182.08C190.634 183.029 191.096 184.071 191.386 185.166C191.59 185.754 191.734 186.36 191.817 186.977C192.335 190.25 192.221 193.592 191.481 196.822Z" fill="#2A2C37"/>
<path d="M197.42 234.927C202.679 231.651 205.524 227.513 205.869 222.685C206.731 212.426 195.955 202.857 195.524 202.426L194.403 203.719C194.489 203.805 204.576 213.116 204.145 222.599C203.981 227.944 197.42 234.927 197.42 234.927Z" fill="#2A2C37"/>
<path d="M203.998 227.143L204.343 225.453L238.56 232.557L238.215 234.1L203.998 227.143Z" fill="#2A2C37"/>
<path d="M209.93 291.206C206.395 289.395 204.757 284.654 205.274 277.843C205.791 271.205 208.205 263.36 212.085 255.687C220.361 239.307 232.431 229.307 239.5 232.927C243.034 234.738 244.672 239.479 244.155 246.29C243.638 252.928 241.224 260.773 237.345 268.446C233.465 276.119 228.551 282.757 223.465 287.067C219.671 290.343 216.051 291.981 213.033 291.981C211.951 291.98 210.885 291.714 209.93 291.206ZM213.55 256.377C209.757 263.877 207.43 271.55 206.912 277.929C206.481 283.964 207.861 288.274 210.619 289.74C213.378 291.206 217.689 289.74 222.344 285.774C227.258 281.636 231.999 275.17 235.793 267.67C239.586 260.17 241.914 252.497 242.431 246.118C242.862 240.083 241.483 235.772 238.724 234.307C237.969 233.954 237.143 233.777 236.31 233.789C229.93 233.807 220.275 243.204 213.55 256.394V256.377Z" fill="black"/>
<path d="M210.188 291.309L210.361 289.585C210.016 289.585 178.29 286.136 163.29 278.895L160.962 279.757C176.221 287.171 208.895 291.136 210.188 291.309Z" fill="#2A2C37"/>
<path d="M58.199 185.615C47.2503 180.701 44.4053 162.683 44.2329 161.907L45.8709 161.648C46.5837 165.825 47.8597 169.885 49.6642 173.718C51.7246 178.028 58.199 185.615 58.199 185.615Z" fill="#2A2C37"/>
<path d="M104.494 198.288C104.236 200.271 103.977 202.168 103.632 203.978C103.546 204.323 103.546 204.668 103.46 204.927C101.391 215.531 97.856 222.341 92.5971 226.048C89.0968 228.429 84.9309 229.636 80.7001 229.497C77.9111 229.467 75.1345 229.119 72.4239 228.462C50.6989 223.721 44.5779 196.823 47.1642 182.598C47.1642 182.426 47.2504 182.167 47.2504 181.995L48.8884 182.34C48.8022 182.857 48.716 183.374 48.6298 183.978C46.647 197.857 52.5955 222.341 72.7687 226.824C80.8725 228.635 87.0797 227.859 91.6488 224.669C96.4766 221.22 99.7526 214.841 101.735 204.754C101.835 204.418 101.893 204.07 101.908 203.72C102.253 201.909 102.511 200.099 102.77 198.03C105.442 176.736 98.1146 158.545 98.0284 158.373L99.5802 157.77C99.7526 157.942 107.253 176.546 104.494 198.288Z" fill="#2A2C37"/>
<path d="M55.6991 183.115C55.181 184.122 54.7205 185.159 54.3198 186.218C54.0962 186.777 53.9231 187.354 53.8025 187.943C53.7163 188.287 53.6301 188.546 53.5439 188.891C53.0559 191.477 52.8248 194.105 52.8542 196.736C52.1778 193.531 52.0902 190.23 52.5955 186.994C52.6785 186.378 52.8229 185.772 53.0266 185.184C53.3063 184.052 53.7725 182.974 54.406 181.994L55.6991 183.115Z" fill="#2A2C37"/>
<path d="M46.9057 234.927C41.6468 231.651 38.8019 227.513 38.457 222.685C37.5949 212.426 48.3712 202.857 48.8023 202.426L49.923 203.719C49.8368 203.805 39.7502 213.116 40.1812 222.599C40.3537 227.944 46.9057 234.927 46.9057 234.927Z" fill="#2A2C37"/>
<path d="M5.96436 232.479L40.0175 225.557L40.3623 227.246L8.3179 233.686L5.96436 232.479Z" fill="#2A2C37"/>
<path d="M31.2153 291.999C28.1979 291.999 24.6633 290.361 20.7838 287.085C15.6974 282.775 10.7834 276.136 6.90393 268.464C3.02446 260.791 0.610578 252.86 0.0933151 246.308C-0.423947 239.411 1.21405 234.669 4.74867 232.945C11.8179 229.324 23.8874 239.325 32.1636 255.705C36.0431 263.377 38.457 271.309 38.9742 277.861C39.4915 284.757 37.8535 289.499 34.3189 291.223C33.3709 291.751 32.3002 292.019 31.2153 291.999ZM8.02467 233.807C7.19219 233.804 6.36881 233.98 5.61078 234.324C2.76583 235.704 1.47269 240.014 1.90374 246.135C2.33479 252.515 4.74868 260.187 8.54194 267.688C12.3352 275.188 17.0768 281.568 21.9908 285.792C26.6461 289.758 30.8704 291.137 33.7154 289.758C36.5603 288.378 37.8535 284.068 37.4224 277.947C36.9914 271.567 34.5775 263.894 30.7842 256.394C24.0598 243.204 14.4042 233.807 8.02467 233.807Z" fill="black"/>
<path d="M34.1465 291.309V289.585C34.4913 289.585 65.0615 286.335 80.0622 279.18L82.3898 280.042C67.1651 287.344 35.4396 291.137 34.1465 291.309Z" fill="#2A2C37"/>
<path d="M62.1649 165.787C58.8027 165.787 55.7854 165.615 53.1128 165.356C45.3539 164.58 44.3194 163.029 44.2332 161.908C44.147 160.787 44.9229 159.063 52.5094 157.252C58.7821 155.873 65.1518 154.98 71.5619 154.58C77.9596 154.059 84.3891 154.059 90.7868 154.58C98.5457 155.356 99.5802 156.908 99.6665 158.028C99.9251 162.339 81.9071 164.753 72.3378 165.442C68.8031 165.615 65.3547 165.787 62.1649 165.787ZM81.8209 155.787C78.8036 155.787 75.4413 155.873 71.7343 156.132C55.0957 157.252 46.1298 160.356 45.9574 161.735C46.3022 163.029 55.6129 164.839 72.2516 163.632C88.8902 162.425 97.856 159.408 98.0285 158.028C97.7698 157.08 92.08 155.787 81.8209 155.787Z" fill="black"/>
<path d="M121.452 206.22C115.175 206.309 108.9 205.914 102.684 205.039L102.934 203.6C103.08 203.6 117.538 206.082 140.979 203.772L141.125 205.229C133.625 205.97 126.978 206.22 121.452 206.22Z" fill="#2A2C37"/>
<path d="M34.4827 129.992C34.4827 129.992 44.4745 108.285 69.9066 103.827L70.0531 101.586C70.0531 101.586 45.6297 105.603 33.7844 128.354L34.4827 129.992Z" fill="#2A2C37"/>
<path d="M209.843 129.992C209.843 129.992 199.86 108.285 174.428 103.827L174.281 101.586C174.281 101.586 198.705 105.603 210.55 128.354L209.843 129.992Z" fill="#2A2C37"/>
</svg>
